<svg width="350" height="552" viewBox="0 0 350 552" fill="none" xmlns="http://www.w3.org/2000/svg">
<path d="M350 725.609V79.8049C350 75.6814 347.893 71.7268 344.142 68.811C340.391 65.8952 335.304 64.257 330 64.257C324.695 64.257 319.608 65.8952 315.858 68.811C312.107 71.7268 310.001 75.6814 310.001 79.8049V666.937C310.001 678.602 304.039 689.789 293.429 698.037C282.818 706.286 268.427 710.92 253.422 710.92V710.92C238.418 710.915 224.03 706.279 213.421 698.031C202.812 689.784 196.85 678.6 196.843 666.937V79.8049C196.843 77.7632 196.325 75.7413 195.32 73.8549C194.315 71.9686 192.842 70.2547 190.985 68.811C189.128 67.3672 186.922 66.222 184.496 65.4407C182.069 64.6593 179.469 64.257 176.843 64.257V64.257C171.538 64.257 166.451 65.8952 162.7 68.811C158.95 71.7268 156.842 75.6814 156.842 79.8049V666.937C156.842 678.602 150.881 689.789 140.27 698.037C129.66 706.286 115.269 710.92 100.263 710.92V710.92C84.2782 710.915 68.9501 705.974 57.6493 697.185C46.3485 688.396 40.0005 676.478 40.0005 664.052V15.5474C40.0005 11.4239 37.8932 7.46927 34.1424 4.5535C30.3917 1.63774 25.3046 0 20.0003 0V0C17.3738 0 14.7736 0.401855 12.3471 1.1832C9.92058 1.96455 7.71526 3.10976 5.85809 4.5535C4.00092 5.99724 2.52776 7.71163 1.52267 9.59797C0.517572 11.4843 0 13.5057 0 15.5474V728.452C0 730.494 0.517572 732.516 1.52267 734.403C2.52776 736.289 4.00092 738.002 5.85809 739.446C7.71526 740.89 9.92058 742.035 12.3471 742.816C14.7736 743.598 17.3738 744 20.0003 744H329.921C332.548 744 335.148 743.598 337.575 742.816C340.001 742.035 342.206 740.89 344.064 739.446C345.921 738.002 347.394 736.289 348.399 734.403C349.404 732.516 349.922 730.494 349.922 728.452L350 725.609Z" fill="#344F5E" fill-opacity="0.5"/>
</svg>
