<svg width="311" height="559" viewBox="0 0 311 559" fill="none" xmlns="http://www.w3.org/2000/svg">
<path fill-rule="evenodd" clip-rule="evenodd" d="M209.583 29.5664C209.48 140.09 209.735 290.028 210.047 303.216L210.419 318.959L224.79 333.235C232.693 341.087 239.16 347.711 239.161 347.954C239.161 348.198 232.66 348.322 224.714 348.229L210.268 348.06L209.941 375.619C209.761 390.777 209.563 457.031 209.501 522.85C209.395 634.553 209.444 642.58 210.248 643.385C211.044 644.19 214.761 644.241 260.908 644.132C288.298 644.063 310.773 643.948 310.852 643.868C310.931 643.787 310.997 513.599 311 354.558C311.003 79.4265 310.96 65.3608 310.109 64.7237C309.617 64.3551 308.642 63.7537 307.941 63.3863C307.241 63.0188 306.484 62.43 306.26 62.0776C306.035 61.7251 305.641 61.437 305.384 61.437C304.741 61.437 300.141 58.2607 299.636 57.4689C299.412 57.1172 298.953 56.8198 298.617 56.808C298.281 56.7967 297.212 56.1056 296.242 55.2721C295.273 54.4391 294.203 53.7572 293.865 53.7572C293.527 53.7572 293.174 53.5847 293.081 53.3732C292.924 53.0174 285.963 48.189 284.777 47.6135C284.487 47.4727 281.901 45.8021 279.032 43.9017C276.161 42.0012 273.688 40.4458 273.534 40.4458C273.381 40.4458 272.634 40.0188 271.875 39.4972C270.513 38.5618 267.276 36.4591 259.285 31.3189C254.257 28.0843 254.404 28.1826 250.369 25.3508C248.547 24.0724 246.731 22.8744 246.334 22.6886C245.936 22.5027 243.987 21.2372 242.003 19.8763C240.019 18.515 238.052 17.1793 237.632 16.9079C237.211 16.6361 234.972 15.1396 232.655 13.5826C230.338 12.0253 228.347 10.7514 228.23 10.7514C228.111 10.7514 226.568 9.75873 224.799 8.54588C223.03 7.33246 221.239 6.17699 220.818 5.97782C220.398 5.77812 219.023 4.93644 217.762 4.10653C216.5 3.27714 214.751 2.26752 213.875 1.86306C212.999 1.45911 212.125 0.874443 211.934 0.564189C211.743 0.253933 211.143 0 210.599 0C209.631 0 209.609 0.650205 209.583 29.5664ZM177.294 199.224C175.633 200.103 174.028 201.034 173.727 201.293C173.426 201.55 171.92 202.548 170.379 203.509C168.838 204.471 167.3 205.498 166.961 205.791C166.623 206.085 166.148 206.325 165.905 206.325C165.663 206.325 164.565 207.01 163.464 207.847C162.363 208.684 161.321 209.375 161.148 209.383C160.879 209.395 154.826 213.265 153.311 214.393C152.34 215.116 148.214 217.846 147.707 218.1C147.426 218.241 144.478 220.2 141.154 222.453C137.83 224.705 134.563 226.848 133.894 227.216C133.224 227.583 132.676 228.102 132.676 228.368C132.676 228.634 132.423 228.852 132.113 228.852C131.803 228.852 130.681 229.543 129.619 230.388C128.558 231.233 127.541 231.924 127.36 231.924C127.179 231.924 126.41 232.351 125.65 232.874C124.891 233.397 123.605 234.261 122.793 234.794C121.98 235.327 120.719 236.161 119.991 236.645C119.262 237.13 117.775 238.052 116.686 238.693C115.597 239.335 114.336 240.093 113.884 240.378C113.431 240.663 111.915 241.574 110.514 242.401C109.113 243.228 107.851 244.035 107.712 244.191C107.415 244.523 103.116 247.417 102.358 247.795C102.075 247.936 100.471 248.991 98.7913 250.139C97.112 251.287 95.3375 252.374 94.847 252.555C94.3559 252.735 93.9549 253.12 93.9549 253.411C93.9549 253.701 93.7225 253.938 93.438 253.938C93.01 253.938 88.4346 256.752 86.5677 258.164C86.2871 258.375 84.9119 259.319 83.5103 260.262L80.963 261.975L80.8047 357.664C80.7169 410.292 80.8018 465.159 80.9929 479.591L81.3394 505.829H96.2784C105.688 505.829 111.335 506.019 111.532 506.342C111.706 506.623 111.603 506.853 111.304 506.853C110.388 506.853 91.2119 524.926 82.5815 533.922L81.1438 535.421L80.8919 588.904C80.6607 637.974 80.7089 642.453 81.4748 643.224C81.9343 643.684 82.8092 644.063 83.4191 644.063C84.0301 644.069 106.487 644.15 133.323 644.242L182.117 644.414L182.403 643.27C182.56 642.643 182.568 638.704 182.421 634.518C182.274 630.332 182.141 564.188 182.126 487.526L182.097 348.142H167.322C159.195 348.142 152.546 348.052 152.546 347.942C152.546 347.662 178.08 322.031 178.359 322.031C178.483 322.031 179.375 321.398 180.341 320.623L182.097 319.215V258.418C182.097 200.858 182.05 197.622 181.205 197.622C180.715 197.623 178.955 198.343 177.294 199.224ZM49.7442 400.236C48.1865 401.071 41.5509 405.139 38.497 407.131C37.754 407.615 36.4798 408.389 35.6646 408.85C34.8499 409.311 32.7426 410.701 30.9819 411.937C29.2206 413.174 27.5275 414.186 27.2194 414.186C26.9113 414.186 26.3824 414.432 26.0439 414.734C25.516 415.203 18.7846 419.732 14.5391 422.474C13.803 422.95 12.9717 423.527 12.6912 423.757C12.4112 423.987 10.0039 425.648 7.34181 427.45C4.67976 429.251 2.01254 431.093 1.41415 431.543C-0.187092 432.748 -1.14864 433.394 -5.65003 436.289C-13.6413 441.43 -16.8783 443.533 -18.2397 444.468C-18.9987 444.99 -19.7491 445.416 -19.9063 445.416C-20.3183 445.416 -37.9395 456.894 -39.7863 458.366C-40.0662 458.589 -41.4586 459.511 -42.8809 460.414C-44.3026 461.317 -45.8223 462.414 -46.2578 462.853C-46.9686 463.568 -47.0426 472.869 -46.9841 553.558C-46.9485 603.008 -46.7862 643.597 -46.6238 643.764C-46.2096 644.178 51.6105 644.155 52.2806 643.741C52.6478 643.511 52.7177 641.706 52.4946 638.227C52.0597 631.453 52.0608 546.322 52.4963 540.521C52.8164 536.254 52.7694 535.956 51.4975 534.121C49.5887 531.368 24.9768 506.855 24.1122 506.846C23.5184 506.839 23.5264 506.75 24.1546 506.342C24.5987 506.053 30.6107 505.842 38.497 505.837L52.0752 505.829L52.0964 462.696C52.1079 438.972 52.2766 415.011 52.4716 409.451C52.8629 398.301 52.9295 398.527 49.7442 400.236ZM-46.2194 674.82C-47.232 675.447 -47.0903 757.649 -46.0759 758.287C-45.162 758.856 -2.78143 759 165.794 759C243.554 759 308.037 758.816 309.088 758.592L310.998 758.183V674.929L298.388 674.573C280.698 674.073 -45.3898 674.302 -46.2194 674.82Z" fill="#344F5E" fill-opacity="0.5"/>
</svg>
