<svg width="248" height="528" viewBox="0 0 248 528" fill="none" xmlns="http://www.w3.org/2000/svg">
<path d="M248 514.948V56.6357C248 53.7094 246.507 50.9029 243.849 48.8336C241.191 46.7644 237.587 45.6017 233.828 45.6017C230.07 45.6017 226.465 46.7644 223.808 48.8336C221.15 50.9029 219.658 53.7094 219.658 56.6357V473.31C219.658 481.588 215.434 489.528 207.915 495.381C200.397 501.235 190.2 504.524 179.567 504.524C168.936 504.52 158.742 501.23 151.224 495.377C143.707 489.524 139.482 481.587 139.477 473.31V56.6357C139.477 55.1868 139.111 53.7519 138.398 52.4132C137.686 51.0745 136.642 49.8582 135.326 48.8336C134.01 47.809 132.448 46.9963 130.728 46.4418C129.009 45.8873 127.167 45.6017 125.306 45.6017C121.547 45.6017 117.943 46.7644 115.285 48.8336C112.627 50.9029 111.134 53.7094 111.134 56.6357V473.31C111.134 481.588 106.91 489.528 99.3916 495.381C91.8732 501.235 81.6764 504.524 71.0438 504.524C59.7171 504.52 48.8561 501.014 40.8487 494.777C32.8412 488.539 28.3432 480.081 28.3432 471.263V11.0337C28.3432 8.1073 26.85 5.30077 24.1923 3.23152C21.5347 1.16226 17.9301 0 14.1716 0C12.3106 0 10.4682 0.285187 8.7488 0.839691C7.02944 1.3942 5.46681 2.20693 4.15088 3.23152C2.83494 4.25611 1.7911 5.47277 1.07892 6.81146C0.366737 8.15015 0 9.58468 0 11.0337V516.966C0 518.415 0.366737 519.85 1.07892 521.189C1.7911 522.528 2.83494 523.744 4.15088 524.768C5.46681 525.793 7.02944 526.605 8.7488 527.16C10.4682 527.714 12.3106 528 14.1716 528H233.773C235.634 528 237.476 527.714 239.196 527.16C240.915 526.605 242.478 525.793 243.794 524.768C245.11 523.744 246.153 522.528 246.866 521.189C247.578 519.85 247.944 518.415 247.944 516.966L248 514.948Z" fill="#344F5E" fill-opacity="0.5"/>
</svg>
