<svg width="48" height="18" viewBox="0 0 48 18" fill="none" xmlns="http://www.w3.org/2000/svg">
<path d="M17.3874 0.545587C14.5901 0.538166 11.4393 0.763167 7.77243 1.32781C7.33962 1.38836 3.1697 3.76697 2.04548 5.40867C0.921261 7.05047 0.53669 10.1756 0.53669 10.1756C0.233175 11.4554 0.41755 13.5707 0.502218 13.7764C0.616475 14.2217 1.26198 14.5954 2.37067 14.8656C2.49997 12.8093 4.20407 11.2069 6.26462 11.2044C8.42204 11.2044 10.1709 12.9534 10.1709 15.1106C10.1695 15.2829 10.1567 15.4549 10.1326 15.6255C10.1902 15.6263 10.2556 15.6278 10.3103 15.6284L33.6761 15.8227C33.6319 15.5879 33.6092 15.3496 33.6085 15.1106C33.6085 12.9534 35.3575 11.2044 37.5147 11.2044C39.6721 11.2044 41.421 12.9534 41.421 15.1106C41.421 15.3712 41.395 15.6311 41.3432 15.8864L47.4161 15.9369C47.5448 13.7092 48.086 11.3695 46.7301 9.42127C46.1973 8.65565 43.612 7.26912 37.0592 6.23182C33.6737 4.53162 30.3695 2.60389 26.7712 1.4992C23.9967 0.948908 20.9841 0.55506 17.3874 0.545587ZM15.708 1.7159C16.2937 1.7202 16.831 1.74422 17.2718 1.795L17.9835 6.51688C13.9376 6.01951 9.81482 5.57323 7.63542 3.83133C7.6696 3.29422 8.41276 2.51668 9.24733 2.21942C9.71999 2.05106 13.1699 1.69735 15.7081 1.7159H15.708ZM19.0893 1.74988C21.5319 1.77567 25.1471 2.01258 27.6344 3.11121C28.826 3.66297 31.0694 4.95438 32.5697 6.09461L31.9496 7.12342C27.8767 6.93983 22.4488 6.71297 20.2211 6.46131L19.0893 1.74988ZM6.26462 12.7669C5.64302 12.7669 5.04688 13.0138 4.60734 13.4533C4.1678 13.8929 3.92087 14.489 3.92087 15.1106C3.92087 15.7322 4.1678 16.3284 4.60734 16.7679C5.04688 17.2074 5.64302 17.4544 6.26462 17.4544C6.88622 17.4544 7.48236 17.2074 7.9219 16.7679C8.36144 16.3284 8.60837 15.7322 8.60837 15.1106C8.60837 14.489 8.36144 13.8929 7.9219 13.4533C7.48236 13.0138 6.88622 12.7669 6.26462 12.7669ZM37.5146 12.7669C36.893 12.7669 36.2969 13.0138 35.8573 13.4533C35.4178 13.8929 35.1709 14.489 35.1709 15.1106C35.1709 15.7322 35.4178 16.3284 35.8573 16.7679C36.2969 17.2074 36.893 17.4544 37.5146 17.4544C38.1362 17.4544 38.7324 17.2074 39.1719 16.7679C39.6114 16.3284 39.8584 15.7322 39.8584 15.1106C39.8584 14.489 39.6114 13.8929 39.1719 13.4533C38.7324 13.0138 38.1362 12.7669 37.5146 12.7669Z" fill="#CFAC6A"/>
</svg>
