<svg width="36" height="36" viewBox="0 0 36 36" fill="none" xmlns="http://www.w3.org/2000/svg">
<path d="M2.25 0C1.00547 0 0 1.00547 0 2.25C0 3.49453 1.00547 4.5 2.25 4.5V31.5C1.00547 31.5 0 32.5055 0 33.75C0 34.9945 1.00547 36 2.25 36H14.625V31.5H21.375V36H33.75C34.9945 36 36 34.9945 36 33.75C36 32.5055 34.9945 31.5 33.75 31.5V4.5C34.9945 4.5 36 3.49453 36 2.25C36 1.00547 34.9945 0 33.75 0H2.25ZM7.875 6.75H10.125C10.7437 6.75 11.25 7.25625 11.25 7.875V10.125C11.25 10.7437 10.7437 11.25 10.125 11.25H7.875C7.25625 11.25 6.75 10.7437 6.75 10.125V7.875C6.75 7.25625 7.25625 6.75 7.875 6.75ZM15.75 7.875C15.75 7.25625 16.2563 6.75 16.875 6.75H19.125C19.7437 6.75 20.25 7.25625 20.25 7.875V10.125C20.25 10.7437 19.7437 11.25 19.125 11.25H16.875C16.2563 11.25 15.75 10.7437 15.75 10.125V7.875ZM25.875 6.75H28.125C28.7437 6.75 29.25 7.25625 29.25 7.875V10.125C29.25 10.7437 28.7437 11.25 28.125 11.25H25.875C25.2563 11.25 24.75 10.7437 24.75 10.125V7.875C24.75 7.25625 25.2563 6.75 25.875 6.75ZM6.75 14.625C6.75 14.0063 7.25625 13.5 7.875 13.5H10.125C10.7437 13.5 11.25 14.0063 11.25 14.625V16.875C11.25 17.4937 10.7437 18 10.125 18H7.875C7.25625 18 6.75 17.4937 6.75 16.875V14.625ZM16.875 13.5H19.125C19.7437 13.5 20.25 14.0063 20.25 14.625V16.875C20.25 17.4937 19.7437 18 19.125 18H16.875C16.2563 18 15.75 17.4937 15.75 16.875V14.625C15.75 14.0063 16.2563 13.5 16.875 13.5ZM24.75 14.625C24.75 14.0063 25.2563 13.5 25.875 13.5H28.125C28.7437 13.5 29.25 14.0063 29.25 14.625V16.875C29.25 17.4937 28.7437 18 28.125 18H25.875C25.2563 18 24.75 17.4937 24.75 16.875V14.625ZM24.5391 25.3266C24.7711 26.2266 23.9906 27 23.0625 27H12.9375C12.0023 27 11.2289 26.2336 11.4609 25.3266C12.2063 22.4086 14.85 20.25 18 20.25C21.15 20.25 23.8008 22.4086 24.5391 25.3266Z" fill="#CFAC6A"/>
</svg>
