<svg width="34" height="28" viewBox="0 0 34 28" fill="none" xmlns="http://www.w3.org/2000/svg">
<path d="M3.66732 27.3334C2.75065 27.3334 1.96621 27.0073 1.31398 26.3551C0.660651 25.7017 0.333984 24.9167 0.333984 24.0001V17.3334C1.25065 17.3334 2.03565 17.0067 2.68898 16.3534C3.34121 15.7012 3.66732 14.9167 3.66732 14.0001C3.66732 13.0834 3.34121 12.2984 2.68898 11.6451C2.03565 10.9929 1.25065 10.6667 0.333984 10.6667V4.00008C0.333984 3.08341 0.660651 2.29897 1.31398 1.64675C1.96621 0.993414 2.75065 0.666748 3.66732 0.666748H30.334C31.2507 0.666748 32.0357 0.993414 32.689 1.64675C33.3412 2.29897 33.6673 3.08341 33.6673 4.00008V24.0001C33.6673 24.9167 33.3412 25.7017 32.689 26.3551C32.0357 27.0073 31.2507 27.3334 30.334 27.3334H3.66732ZM11.7507 20.0834L26.584 16.1667C27.0007 16.0556 27.3129 15.7984 27.5207 15.3951C27.7295 14.9929 27.7784 14.5834 27.6673 14.1667C27.5562 13.7501 27.3129 13.4373 26.9373 13.2284C26.5629 13.0206 26.1673 12.9723 25.7507 13.0834L21.6673 14.1667L15.0007 7.91675L12.6673 8.50008L16.6673 15.5001L12.6673 16.5001L10.584 14.9167L9.00065 15.3334L11.7507 20.0834Z" fill="#CFAC6A"/>
</svg>
