<svg width="16" height="16" viewBox="0 0 16 16" fill="none" xmlns="http://www.w3.org/2000/svg">
<path fill-rule="evenodd" clip-rule="evenodd" d="M4.64691 0.71026C5.42891 0.67426 5.67825 0.66626 7.67025 0.66626C9.66224 0.66626 9.91158 0.674926 10.6929 0.71026C11.4742 0.745593 12.0076 0.87026 12.4742 1.05093C12.9629 1.23559 13.4062 1.52426 13.7729 1.89759C14.1462 2.26359 14.4342 2.70626 14.6182 3.19559C14.7996 3.66226 14.9236 4.19559 14.9596 4.97559C14.9956 5.75893 15.0036 6.00826 15.0036 7.99959C15.0036 9.99159 14.9949 10.2409 14.9596 11.0229C14.9242 11.8029 14.7996 12.3363 14.6182 12.8029C14.4342 13.2923 14.1458 13.7357 13.7729 14.1023C13.4062 14.4756 12.9629 14.7636 12.4742 14.9476C12.0076 15.1289 11.4742 15.2529 10.6942 15.2889C9.91158 15.3249 9.66224 15.3329 7.67025 15.3329C5.67825 15.3329 5.42891 15.3243 4.64691 15.2889C3.86691 15.2536 3.33358 15.1289 2.86691 14.9476C2.37753 14.7636 1.93413 14.4751 1.56758 14.1023C1.1945 13.736 0.90579 13.2929 0.721581 12.8036C0.540914 12.3369 0.416914 11.8036 0.380914 11.0236C0.344914 10.2403 0.336914 9.99093 0.336914 7.99959C0.336914 6.00759 0.345581 5.75826 0.380914 4.97693C0.416247 4.19559 0.540914 3.66226 0.721581 3.19559C0.906062 2.70631 1.19499 2.26314 1.56825 1.89693C1.93427 1.52393 2.37723 1.23522 2.86625 1.05093C3.33291 0.87026 3.86625 0.74626 4.64625 0.71026H4.64691ZM10.6336 2.03026C9.86024 1.99493 9.62825 1.98759 7.67025 1.98759C5.71225 1.98759 5.48025 1.99493 4.70691 2.03026C3.99158 2.06293 3.60358 2.18226 3.34491 2.28293C3.00291 2.41626 2.75825 2.57426 2.50158 2.83093C2.25828 3.06763 2.07103 3.35578 1.95358 3.67426C1.85291 3.93293 1.73358 4.32093 1.70091 5.03626C1.66558 5.80959 1.65825 6.04159 1.65825 7.99959C1.65825 9.95759 1.66558 10.1896 1.70091 10.9629C1.73358 11.6783 1.85291 12.0663 1.95358 12.3249C2.07091 12.6429 2.25825 12.9316 2.50158 13.1683C2.73825 13.4116 3.02691 13.5989 3.34491 13.7163C3.60358 13.8169 3.99158 13.9363 4.70691 13.9689C5.48025 14.0043 5.71158 14.0116 7.67025 14.0116C9.62891 14.0116 9.86024 14.0043 10.6336 13.9689C11.3489 13.9363 11.7369 13.8169 11.9956 13.7163C12.3376 13.5829 12.5822 13.4249 12.8389 13.1683C13.0822 12.9316 13.2696 12.6429 13.3869 12.3249C13.4876 12.0663 13.6069 11.6783 13.6396 10.9629C13.6749 10.1896 13.6822 9.95759 13.6822 7.99959C13.6822 6.04159 13.6749 5.80959 13.6396 5.03626C13.6069 4.32093 13.4876 3.93293 13.3869 3.67426C13.2536 3.33226 13.0956 3.08759 12.8389 2.83093C12.6022 2.58764 12.314 2.4004 11.9956 2.28293C11.7369 2.18226 11.3489 2.06293 10.6336 2.03026ZM6.73358 10.2603C7.25669 10.478 7.83916 10.5074 8.38153 10.3434C8.9239 10.1794 9.39251 9.8322 9.70732 9.36109C10.0221 8.88997 10.1636 8.32417 10.1076 7.76033C10.0516 7.19649 9.80158 6.66958 9.40025 6.26959C9.1444 6.01391 8.83505 5.81813 8.49447 5.69636C8.15388 5.57458 7.79053 5.52983 7.43058 5.56534C7.07062 5.60084 6.72301 5.71571 6.41278 5.90168C6.10255 6.08765 5.83741 6.34009 5.63645 6.64083C5.43549 6.94157 5.30371 7.28312 5.25059 7.6409C5.19747 7.99868 5.22435 8.36379 5.32927 8.70994C5.4342 9.05609 5.61457 9.37467 5.85739 9.64274C6.10022 9.91082 6.39946 10.1217 6.73358 10.2603ZM5.00491 5.33426C5.35493 4.98424 5.77046 4.70659 6.22778 4.51717C6.6851 4.32774 7.17525 4.23024 7.67025 4.23024C8.16524 4.23024 8.65539 4.32774 9.11271 4.51717C9.57003 4.70659 9.98556 4.98424 10.3356 5.33426C10.6856 5.68428 10.9632 6.09981 11.1527 6.55713C11.3421 7.01444 11.4396 7.5046 11.4396 7.99959C11.4396 8.49459 11.3421 8.98474 11.1527 9.44206C10.9632 9.89938 10.6856 10.3149 10.3356 10.6649C9.62869 11.3718 8.66994 11.7689 7.67025 11.7689C6.67055 11.7689 5.7118 11.3718 5.00491 10.6649C4.29802 9.95804 3.9009 8.99929 3.9009 7.99959C3.9009 6.9999 4.29802 6.04115 5.00491 5.33426ZM12.2756 4.79159C12.3623 4.70977 12.4318 4.61138 12.4798 4.50224C12.5278 4.3931 12.5535 4.27544 12.5552 4.15621C12.5569 4.03699 12.5347 3.91862 12.4899 3.80813C12.4451 3.69764 12.3785 3.59727 12.2942 3.51295C12.2099 3.42864 12.1095 3.3621 11.999 3.31727C11.8885 3.27245 11.7702 3.25024 11.651 3.25198C11.5317 3.25372 11.4141 3.27936 11.3049 3.32739C11.1958 3.37542 11.0974 3.44486 11.0156 3.53159C10.8565 3.70028 10.7693 3.92434 10.7727 4.15621C10.7761 4.38809 10.8697 4.60951 11.0337 4.77349C11.1977 4.93746 11.4191 5.03108 11.651 5.03446C11.8828 5.03784 12.1069 4.95072 12.2756 4.79159Z" fill="white"/>
</svg>
