<svg width="92" height="195" viewBox="0 0 92 195" fill="none" xmlns="http://www.w3.org/2000/svg">
<path fill-rule="evenodd" clip-rule="evenodd" d="M65.9374 7.59612C65.9112 35.9914 65.9765 74.5132 66.0567 77.9015L66.1524 81.9461L69.8454 85.6139C71.8764 87.6311 73.5383 89.3327 73.5385 89.3954C73.5385 89.458 71.8679 89.4898 69.8259 89.4658L66.1135 89.4224L66.0294 96.503C65.9833 100.397 65.9323 117.419 65.9163 134.329C65.8892 163.027 65.9019 165.09 66.1083 165.296C66.3131 165.503 67.2682 165.517 79.1272 165.489C86.1661 165.471 91.9417 165.441 91.9619 165.421C91.9823 165.4 91.9992 131.952 92 91.092C92.0009 20.406 91.9897 16.7923 91.771 16.6286C91.6447 16.5339 91.394 16.3794 91.214 16.285C91.034 16.1906 90.8395 16.0393 90.7819 15.9488C90.7242 15.8582 90.6229 15.7842 90.5567 15.7842C90.3914 15.7842 89.2094 14.9682 89.0797 14.7647C89.0222 14.6744 88.9043 14.598 88.8179 14.5949C88.7315 14.592 88.4568 14.4145 88.2075 14.2003C87.9583 13.9863 87.6833 13.8111 87.5965 13.8111C87.5098 13.8111 87.4191 13.7668 87.3951 13.7125C87.3547 13.6211 85.5659 12.3806 85.2611 12.2327C85.1867 12.1965 84.5222 11.7673 83.7847 11.2791C83.0471 10.7908 82.4113 10.3912 82.3718 10.3912C82.3324 10.3912 82.1405 10.2815 81.9454 10.1475C81.5956 9.90718 80.7636 9.36697 78.7101 8.04636C77.418 7.21532 77.4557 7.24059 76.4188 6.51306C75.9507 6.18462 75.484 5.87683 75.3819 5.82908C75.2796 5.78134 74.7787 5.45619 74.2689 5.10656C73.759 4.75682 73.2535 4.41365 73.1456 4.34394C73.0375 4.27409 72.4621 3.88961 71.8667 3.48961C71.2712 3.08949 70.7595 2.76222 70.7294 2.76222C70.699 2.76222 70.3024 2.50718 69.8477 2.19558C69.3932 1.88383 68.9329 1.58697 68.8248 1.5358C68.7167 1.4845 68.3633 1.26826 68.0393 1.05504C67.7152 0.841952 67.2657 0.582564 67.0405 0.478651C66.8153 0.37487 66.5909 0.224659 66.5418 0.14495C66.4927 0.0652398 66.3383 0 66.1985 0C65.95 0 65.9442 0.167049 65.9374 7.59612ZM57.6397 51.184C57.2129 51.4098 56.8004 51.6491 56.7231 51.7155C56.6459 51.7817 56.2587 52.038 55.8627 52.285C55.4667 52.532 55.0714 52.7958 54.9844 52.8713C54.8974 52.9468 54.7755 53.0084 54.7131 53.0084C54.6509 53.0084 54.3686 53.1843 54.0856 53.3994C53.8029 53.6144 53.535 53.7919 53.4904 53.794C53.4214 53.7971 51.8658 54.7913 51.4765 55.0813C51.2272 55.2668 50.1666 55.9682 50.0363 56.0337C49.9642 56.0699 49.2065 56.573 48.3524 57.1518C47.4982 57.7305 46.6587 58.2812 46.4867 58.3758C46.3146 58.47 46.1738 58.6033 46.1738 58.6717C46.1738 58.7401 46.1086 58.7959 46.029 58.7959C45.9494 58.7959 45.661 58.9735 45.3883 59.1906C45.1155 59.4076 44.8542 59.5852 44.8077 59.5852C44.7611 59.5852 44.5633 59.695 44.3683 59.8294C44.1731 59.9637 43.8427 60.1856 43.6339 60.3227C43.4251 60.4596 43.1011 60.6737 42.9138 60.7982C42.7264 60.9227 42.3443 61.1595 42.0645 61.3242C41.7846 61.4891 41.4606 61.684 41.3444 61.7572C41.2281 61.8305 40.8384 62.0644 40.4783 62.2769C40.1183 62.4895 39.7942 62.6966 39.7583 62.7368C39.6822 62.8221 38.5773 63.5657 38.3824 63.6628C38.3099 63.699 37.8975 63.9699 37.4659 64.2649C37.0344 64.5599 36.5784 64.8391 36.4523 64.8857C36.3261 64.9319 36.223 65.0309 36.223 65.1055C36.223 65.1801 36.1633 65.2411 36.0902 65.2411C35.9802 65.2411 34.8044 65.9639 34.3247 66.3266C34.2526 66.381 33.8992 66.6235 33.539 66.8658L32.8844 67.3059L32.8437 91.8899C32.8211 105.411 32.8429 119.507 32.892 123.215L32.9811 129.956H36.8202C39.2383 129.956 40.6893 130.005 40.7402 130.088C40.7847 130.16 40.7583 130.219 40.6814 130.219C40.446 130.219 35.5182 134.862 33.3003 137.174L32.9308 137.559L32.8661 151.299C32.8067 163.906 32.819 165.057 33.0159 165.255C33.134 165.373 33.3588 165.471 33.5155 165.471C33.6725 165.472 39.4435 165.493 46.3401 165.517L58.8792 165.561L58.9527 165.267C58.993 165.106 58.9953 164.094 58.9574 163.019C58.9196 161.943 58.8854 144.949 58.8814 125.254L58.8741 89.4435H55.0772C52.9887 89.4435 51.2801 89.4203 51.2801 89.3921C51.2801 89.3202 57.8419 82.7353 57.9134 82.7353C57.9454 82.7353 58.1746 82.5726 58.4228 82.3735L58.8741 82.0118V66.392C58.8741 51.6038 58.862 50.7724 58.645 50.7725C58.5189 50.7727 58.0666 50.9578 57.6397 51.184ZM24.8616 102.827C24.4613 103.042 22.7561 104.087 21.9713 104.599C21.7804 104.723 21.4529 104.922 21.2434 105.04C21.034 105.159 20.4925 105.516 20.04 105.834C19.5874 106.151 19.1523 106.411 19.0731 106.411C18.994 106.411 18.858 106.475 18.771 106.552C18.6354 106.673 16.9055 107.836 15.8145 108.541C15.6254 108.663 15.4117 108.811 15.3396 108.87C15.2677 108.929 14.649 109.356 13.9649 109.819C13.2808 110.282 12.5954 110.755 12.4416 110.871C12.0301 111.18 11.783 111.346 10.6263 112.09C8.57261 113.411 7.74078 113.951 7.39092 114.191C7.19586 114.325 7.00301 114.435 6.96262 114.435C6.85676 114.435 2.32841 117.384 1.85381 117.762C1.78186 117.819 1.42404 118.056 1.05854 118.288C0.693196 118.52 0.30264 118.802 0.190736 118.915C0.00806287 119.098 -0.0109573 121.488 0.00408114 142.218C0.0132222 154.923 0.0549474 165.351 0.0966718 165.394C0.203121 165.5 25.3412 165.494 25.5134 165.388C25.6078 165.329 25.6258 164.865 25.5684 163.971C25.4567 162.231 25.457 140.359 25.5689 138.869C25.6511 137.773 25.6391 137.696 25.3122 137.225C24.8217 136.517 18.4968 130.22 18.2746 130.217C18.122 130.216 18.1241 130.193 18.2855 130.088C18.3997 130.014 19.9446 129.959 21.9713 129.958L25.4607 129.956L25.4661 118.874C25.4691 112.779 25.5124 106.623 25.5625 105.195C25.6631 102.33 25.6802 102.388 24.8616 102.827ZM0.200612 173.373C-0.0596123 173.534 -0.0231956 194.653 0.237471 194.817C0.472337 194.963 11.3634 195 54.6844 195C74.6675 195 91.2386 194.953 91.5086 194.895L91.9995 194.79V173.401L88.759 173.309C84.2128 173.181 0.413804 173.24 0.200612 173.373Z" fill="#344F5E" fill-opacity="0.5"/>
</svg>
