<svg width="125" height="81" viewBox="0 0 125 81" fill="none" xmlns="http://www.w3.org/2000/svg">
<path fill-rule="evenodd" clip-rule="evenodd" d="M19.3512 8.1425C19.3435 16.1514 19.3627 27.0165 19.3862 27.9722L19.4143 29.113L20.4981 30.1475C21.0942 30.7165 21.5819 31.1964 21.5819 31.2141C21.5819 31.2318 21.0917 31.2407 20.4924 31.234L19.4029 31.2217L19.3782 33.2188C19.3647 34.3172 19.3497 39.1182 19.345 43.8877C19.3371 51.9821 19.3408 52.5638 19.4014 52.6221C19.4615 52.6804 19.7418 52.6842 23.2221 52.6763C25.2879 52.6712 26.9829 52.6629 26.9888 52.6571C26.9948 52.6513 26.9998 43.2173 27 31.6926C27.0002 11.7555 26.997 10.7363 26.9328 10.6901C26.8957 10.6634 26.8222 10.6198 26.7693 10.5932C26.7165 10.5666 26.6594 10.5239 26.6425 10.4984C26.6256 10.4728 26.5959 10.452 26.5764 10.452C26.5279 10.452 26.181 10.2218 26.143 10.1644C26.1261 10.1389 26.0915 10.1174 26.0661 10.1165C26.0408 10.1157 25.9601 10.0656 25.887 10.0052C25.8138 9.94486 25.7332 9.89545 25.7077 9.89545C25.6822 9.89545 25.6556 9.88295 25.6486 9.86762C25.6367 9.84184 25.1117 9.49195 25.0223 9.45025C25.0004 9.44005 24.8054 9.319 24.589 9.18128C24.3725 9.04357 24.1859 8.93086 24.1743 8.93086C24.1628 8.93086 24.1064 8.89992 24.0492 8.86211C23.9465 8.79433 23.7024 8.64197 23.0997 8.26949C22.7205 8.03509 22.7316 8.04222 22.4273 7.83702C22.2899 7.74438 22.1529 7.65757 22.1229 7.6441C22.0929 7.63063 21.9459 7.53893 21.7963 7.44031C21.6467 7.34167 21.4983 7.24488 21.4666 7.22521C21.4349 7.20551 21.266 7.09707 21.0913 6.98425C20.9165 6.8714 20.7664 6.77909 20.7575 6.77909C20.7486 6.77909 20.6322 6.70715 20.4988 6.61927C20.3654 6.53134 20.2303 6.44761 20.1986 6.43318C20.1669 6.4187 20.0632 6.35771 19.968 6.29757C19.8729 6.23747 19.741 6.16431 19.6749 6.135C19.6088 6.10573 19.543 6.06337 19.5286 6.04088C19.5142 6.0184 19.4689 6 19.4278 6C19.3549 6 19.3532 6.04712 19.3512 8.1425ZM16.916 20.4365C16.7907 20.5002 16.6697 20.5677 16.647 20.5864C16.6243 20.6051 16.5107 20.6774 16.3945 20.747C16.2783 20.8167 16.1623 20.8911 16.1367 20.9124C16.1112 20.9337 16.0754 20.9511 16.0571 20.9511C16.0389 20.9511 15.956 21.0007 15.873 21.0614C15.79 21.122 15.7113 21.1721 15.6983 21.1727C15.678 21.1735 15.2215 21.454 15.1072 21.5358C15.0341 21.5881 14.7228 21.7859 14.6846 21.8044C14.6634 21.8146 14.4411 21.9565 14.1904 22.1198C13.9397 22.283 13.6933 22.4383 13.6428 22.465C13.5923 22.4915 13.551 22.5291 13.551 22.5484C13.551 22.5677 13.5319 22.5835 13.5085 22.5835C13.4851 22.5835 13.4005 22.6335 13.3205 22.6948C13.2404 22.756 13.1637 22.8061 13.1501 22.8061C13.1364 22.8061 13.0784 22.837 13.0211 22.875C12.9638 22.9128 12.8669 22.9754 12.8056 23.0141C12.7443 23.0527 12.6492 23.1131 12.5943 23.1482C12.5393 23.1833 12.4271 23.2501 12.345 23.2966C12.2629 23.3431 12.1678 23.398 12.1337 23.4187C12.0995 23.4394 11.9852 23.5053 11.8795 23.5653C11.7738 23.6252 11.6787 23.6837 11.6682 23.695C11.6459 23.719 11.3216 23.9288 11.2644 23.9562C11.2431 23.9664 11.1221 24.0428 10.9954 24.126C10.8688 24.2092 10.735 24.288 10.698 24.3011C10.6609 24.3141 10.6307 24.342 10.6307 24.3631C10.6307 24.3841 10.6132 24.4013 10.5917 24.4013C10.5594 24.4013 10.2143 24.6052 10.0735 24.7075C10.0524 24.7228 9.94866 24.7913 9.84296 24.8596L9.65084 24.9837L9.6389 31.9177C9.63228 35.7313 9.63868 39.7072 9.65309 40.753L9.67923 42.6543H10.8059C11.5156 42.6543 11.9414 42.668 11.9564 42.6914C11.9694 42.7118 11.9617 42.7285 11.9391 42.7285C11.87 42.7285 10.4238 44.0381 9.77291 44.69L9.66447 44.7986L9.64548 48.6742C9.62804 52.23 9.63167 52.5546 9.68944 52.6104C9.7241 52.6438 9.79008 52.6712 9.83608 52.6712C9.88216 52.6717 11.5758 52.6775 13.5998 52.6842L17.2798 52.6967L17.3013 52.6138C17.3132 52.5683 17.3138 52.2829 17.3027 51.9796C17.2916 51.6763 17.2816 46.8832 17.2804 41.328L17.2783 31.2277H16.1639C15.551 31.2277 15.0496 31.2211 15.0496 31.2132C15.0496 31.1929 16.9753 29.3356 16.9963 29.3356C17.0057 29.3356 17.073 29.2897 17.1458 29.2335L17.2783 29.1315V24.726C17.2783 20.5549 17.2747 20.3204 17.211 20.3205C17.174 20.3205 17.0413 20.3727 16.916 20.4365ZM7.29635 35.0026C7.17887 35.0631 6.67842 35.3579 6.4481 35.5023C6.39206 35.5373 6.29596 35.5934 6.23448 35.6268C6.17303 35.6603 6.01411 35.7609 5.88131 35.8505C5.74848 35.9401 5.62079 36.0135 5.59755 36.0135C5.57432 36.0135 5.53442 36.0313 5.50889 36.0532C5.46909 36.0872 4.96141 36.4153 4.64122 36.6141C4.5857 36.6485 4.52301 36.6904 4.50185 36.707C4.48073 36.7237 4.29917 36.8441 4.0984 36.9746C3.89764 37.1051 3.69648 37.2386 3.65135 37.2713C3.53058 37.3585 3.45806 37.4053 3.11857 37.6152C2.51588 37.9877 2.27175 38.14 2.16907 38.2078C2.11183 38.2456 2.05523 38.2765 2.04338 38.2765C2.01231 38.2765 0.683337 39.1083 0.544054 39.2149C0.522938 39.2311 0.417923 39.2979 0.310659 39.3633C0.203438 39.4287 0.0888182 39.5083 0.0559769 39.54C0.00236628 39.5919 -0.00321574 40.2659 0.00119772 46.1129C0.00388042 49.6963 0.0161259 52.6375 0.0283711 52.6496C0.0596115 52.6796 7.4371 52.6779 7.48764 52.6479C7.51533 52.6313 7.52061 52.5004 7.50378 52.2483C7.47098 51.7575 7.47107 45.5885 7.50391 45.1682C7.52805 44.859 7.52451 44.8374 7.42858 44.7044C7.28462 44.5049 5.42842 42.7286 5.36321 42.728C5.31842 42.7275 5.31903 42.721 5.36641 42.6914C5.3999 42.6705 5.85332 42.6552 6.4481 42.6549L7.47215 42.6543L7.47375 39.5287C7.47462 37.8095 7.48734 36.0733 7.50205 35.6703C7.53156 34.8624 7.53658 34.8788 7.29635 35.0026ZM0.0588753 54.9C-0.0174949 54.9454 -0.00680741 60.9021 0.0696926 60.9483C0.13862 60.9896 3.33492 61 16.0487 61C21.9133 61 26.7765 60.9867 26.8558 60.9704L26.9999 60.9408V54.9079L26.0488 54.8821C24.7146 54.8458 0.121443 54.8625 0.0588753 54.9Z" fill="#CFAC6A"/>
<path d="M42 45H40V26H42V45Z" fill="white"/>
<path d="M58 45H55.271L46.9599 28.4936V44.9729H45V26H47.8779L56.0401 42.3167V26H58V45Z" fill="white"/>
<path d="M69.1656 45C67.8764 45 66.6755 44.7535 65.5629 44.2611C64.468 43.7688 63.5055 43.1 62.6755 42.2556C61.8278 41.4111 61.1656 40.4257 60.6887 39.3C60.2296 38.1562 60 36.8896 60 35.5C60 34.1632 60.2384 32.9139 60.7152 31.7528C61.1921 30.5917 61.8454 29.5889 62.6755 28.7444C63.5055 27.9 64.468 27.2312 65.5629 26.7389C66.6755 26.2466 67.8764 26 69.1656 26C70.4547 26 71.6733 26.2639 72.8212 26.7917C73.9868 27.3194 75.0464 28.1202 76 29.1931L74.3311 30.5653C72.8123 28.9118 71.0905 28.0847 69.1656 28.0847C68.1766 28.0847 67.2671 28.2785 66.4371 28.6653C65.607 29.0521 64.8653 29.5798 64.2119 30.2486C63.5762 30.9174 63.0728 31.7 62.702 32.5972C62.3488 33.4771 62.1722 34.4444 62.1722 35.5C62.1722 36.5729 62.3488 37.5583 62.702 38.4556C63.0728 39.3354 63.5762 40.1007 64.2119 40.7514C64.8653 41.4202 65.607 41.9479 66.4371 42.3347C67.2671 42.7215 68.1766 42.9153 69.1656 42.9153C71.0905 42.9153 72.8123 42.0882 74.3311 40.4347L76 41.8069C75.0464 42.8798 73.9868 43.6806 72.8212 44.2083C71.6733 44.7361 70.4547 45 69.1656 45Z" fill="white"/>
<path d="M95 35.5C95 36.8368 94.7766 38.0861 94.3299 39.2472C93.8997 40.391 93.2959 41.3938 92.5182 42.2556C91.7406 43.1173 90.839 43.7952 89.8131 44.2875C88.7873 44.7625 87.6871 45 86.5124 45C85.3212 45 84.2127 44.7535 83.1869 44.2611C82.161 43.7688 81.2594 43.091 80.4818 42.2292C79.7041 41.3493 79.092 40.3382 78.6453 39.1944C78.2151 38.0507 78 36.8194 78 35.5C78 34.1979 78.2234 32.9757 78.6701 31.8319C79.1168 30.6708 79.7372 29.659 80.5314 28.7972C81.3255 27.9173 82.2355 27.2312 83.2613 26.7389C84.2871 26.2466 85.3708 26 86.5124 26C87.6871 26 88.7873 26.2548 89.8131 26.7653C90.839 27.2576 91.7406 27.9437 92.5182 28.8236C93.2959 29.7035 93.8997 30.7146 94.3299 31.8583C94.7766 33.0021 95 34.216 95 35.5ZM92.9898 35.5C92.9898 34.4799 92.8161 33.5208 92.4686 32.6236C92.1377 31.709 91.6744 30.9083 91.0788 30.2222C90.4997 29.5188 89.8131 28.9729 89.019 28.5861C88.2413 28.1812 87.4058 27.9792 86.5124 27.9792C85.6024 27.9792 84.7504 28.1812 83.9562 28.5861C83.1786 28.9729 82.492 29.5188 81.8963 30.2222C81.3172 30.9083 80.854 31.709 80.5066 32.6236C80.1756 33.5208 80.0102 34.4799 80.0102 35.5C80.0102 36.5201 80.1756 37.4882 80.5066 38.4028C80.854 39.3173 81.3172 40.1271 81.8963 40.8306C82.492 41.5167 83.1786 42.0618 83.9562 42.4667C84.7504 42.8535 85.6024 43.0472 86.5124 43.0472C87.4224 43.0472 88.2662 42.8535 89.0438 42.4667C89.8214 42.0618 90.508 41.5167 91.1036 40.8306C91.6993 40.1271 92.1625 39.3264 92.4934 38.4292C92.8244 37.5146 92.9898 36.5382 92.9898 35.5Z" fill="white"/>
<path d="M98 45V26H102.114L107 39.49L111.887 26H116V45H114.006V28.4429H113.158L108.097 42.0414H105.928L100.842 28.4429H99.9695V45H98Z" fill="white"/>
<path d="M66 59H65.3935L64.2323 56.8929H63.5097V59H63L63.0065 54H64.729C64.9398 54 65.129 54.0692 65.2968 54.2068C65.4688 54.3408 65.6065 54.5164 65.7097 54.7359C65.8129 54.9546 65.8645 55.1927 65.8645 55.4501C65.8645 55.6689 65.8172 55.881 65.7226 56.0856C65.6323 56.2902 65.5097 56.4643 65.3548 56.6071C65.2 56.75 65.0237 56.8356 64.8258 56.8646L66 59ZM65.3484 55.4501C65.3484 55.3073 65.3204 55.1689 65.2645 55.0357C65.2086 54.8973 65.1333 54.7857 65.0387 54.7001C64.9441 54.6094 64.8344 54.564 64.7097 54.564H63.5097V56.314H64.6968C64.8172 56.314 64.9247 56.2693 65.0194 56.1786C65.1183 56.0878 65.1978 55.9762 65.2581 55.843C65.3183 55.7098 65.3484 55.5789 65.3484 55.4501Z" fill="white"/>
<path d="M71 59H68V54H71V54.5141H68.627V56.3073H70.5476V56.7932H68.627V58.4859H71V59Z" fill="white"/>
<path d="M73 59L74.6421 54H75.3509L77 59H76.4035L75.9895 57.7284H74.0035L73.5895 59H73ZM75 54.686L74.1579 57.25H75.8351L75 54.686Z" fill="white"/>
<path d="M82 59H80V54H80.4847V58.4568H82V59Z" fill="white"/>
<path d="M92 59H89V54H92V54.5141H89.627V56.3073H91.5476V56.7932H89.627V58.4859H92V59Z" fill="white"/>
<path d="M95.5065 60C95.222 60 94.944 59.9273 94.6724 59.782C94.4052 59.6358 94.181 59.4572 94 59.2436L94.3944 58.7736C94.5539 58.9416 94.7328 59.0756 94.931 59.1771C95.1293 59.2717 95.3168 59.3198 95.4935 59.3198C95.6703 59.3198 95.8319 59.2752 95.9785 59.185C96.1293 59.0957 96.25 58.9723 96.3405 58.8156C96.431 58.6528 96.4784 58.4654 96.4828 58.2527C96.4871 57.9831 96.4138 57.7677 96.2629 57.6049C96.1121 57.4429 95.8793 57.3108 95.5647 57.2101C95.2586 57.1094 94.9914 56.986 94.7629 56.8407C94.5345 56.6892 94.3599 56.4984 94.2392 56.269C94.1185 56.0397 94.069 55.7534 94.0905 55.412C94.1207 54.9577 94.2651 54.611 94.5237 54.3694C94.7866 54.1234 95.1315 54 95.5582 54C95.7651 54 95.9828 54.0333 96.2112 54.1007C96.444 54.1628 96.6616 54.2688 96.8642 54.4202L96.5216 54.9577C96.3707 54.8736 96.2155 54.8071 96.056 54.7563C95.8966 54.7003 95.7349 54.6697 95.5711 54.6635C95.4116 54.6635 95.2586 54.6916 95.1121 54.7476C94.9698 54.7984 94.8534 54.885 94.7629 55.0085C94.6724 55.1258 94.625 55.286 94.6207 55.4873C94.6207 55.6948 94.6638 55.8629 94.75 55.9915C94.8362 56.115 94.9526 56.2156 95.0991 56.2944C95.2457 56.3723 95.4095 56.4459 95.5905 56.5124C95.8966 56.6192 96.153 56.7365 96.3599 56.8661C96.5711 56.9947 96.7306 57.1654 96.8384 57.3782C96.9461 57.5909 97 57.8824 97 58.2527C97 58.5827 96.931 58.8795 96.7931 59.143C96.6595 59.4065 96.4784 59.6166 96.25 59.7733C96.0259 59.9247 95.778 60 95.5065 60Z" fill="white"/>
<path d="M103 54.5216H101.733V59H101.267V54.5216H100V54H103V54.5216Z" fill="white"/>
<path d="M105 59L106.642 54H107.351L109 59H108.404L107.99 57.7284H106.003L105.589 59H105ZM107 54.686L106.158 57.25H107.835L107 54.686Z" fill="white"/>
<path d="M114 54.5216H112.733V59H112.267V54.5216H111V54H114V54.5216Z" fill="white"/>
<path d="M119 59H117V54H119V54.5141H117.418V56.3073H118.698V56.7932H117.418V58.4859H119V59Z" fill="white"/>
<path d="M44 56.4967C44 56.8426 43.9342 57.1671 43.8026 57.4709C43.6758 57.7694 43.4979 58.0354 43.2687 58.2673C43.0396 58.4947 42.7739 58.6755 42.4717 58.8081C42.1694 58.9363 41.8428 59 41.4918 59H40V54H41.4918C41.8428 54 42.1694 54.0667 42.4717 54.1993C42.7788 54.3275 43.0469 54.5075 43.2761 54.7401C43.5052 54.9676 43.6831 55.2328 43.8099 55.5365C43.9366 55.8351 44 56.1551 44 56.4967ZM43.4077 56.4967C43.4077 56.1359 43.3224 55.8092 43.1517 55.515C42.986 55.2209 42.7593 54.9861 42.4717 54.8112C42.184 54.6356 41.8574 54.5475 41.4918 54.5475H40.585V58.4451H41.4918C41.8574 58.4451 42.184 58.3577 42.4717 58.1821C42.7593 58.0021 42.986 57.765 43.1517 57.4709C43.3224 57.1723 43.4077 56.8471 43.4077 56.4967Z" fill="white"/>
<path d="M49.3911 54H50V58.9645H49.3911V58.4046C49.2164 58.5841 49.0083 58.7281 48.7669 58.8367C48.5305 58.9453 48.2736 59 47.9961 59C47.6262 59 47.2897 58.9217 46.9865 58.7658C46.6885 58.6055 46.4496 58.3927 46.2698 58.1275C46.0899 57.8579 46 57.5579 46 57.2269V54H46.6089L46.6166 57.2269C46.6166 57.4493 46.6782 57.6525 46.8015 57.8372C46.9249 58.0167 47.0918 58.1608 47.3025 58.2694C47.5132 58.378 47.7444 58.4326 47.9961 58.4326C48.2633 58.4326 48.5022 58.3809 48.7129 58.2767C48.9236 58.1681 49.088 58.0211 49.2062 57.8372C49.3295 57.6525 49.3911 57.4493 49.3911 57.2269V54Z" fill="white"/>
<path d="M53 59V54H54.6617C54.8816 54 55.074 54.0595 55.2389 54.1786C55.408 54.2976 55.5391 54.4598 55.6321 54.6644C55.7294 54.8646 55.778 55.0878 55.778 55.3356C55.778 55.5312 55.7484 55.7068 55.6892 55.8646C55.63 56.0216 55.537 56.1882 55.4101 56.3646C55.6131 56.5164 55.7611 56.6949 55.8541 56.9003C55.9514 57.0997 56 57.317 56 57.5499C56 57.7262 55.9704 57.9025 55.9112 58.0789C55.852 58.25 55.7696 58.4048 55.6638 58.5432C55.5581 58.6808 55.4355 58.7932 55.296 58.8787C55.1607 58.9598 55.0169 59 54.8647 59H53ZM53.5074 56.2284H54.6427C54.7569 56.2284 54.8605 56.186 54.9535 56.0997C55.0465 56.0097 55.1205 55.8973 55.1755 55.7641C55.2347 55.6265 55.2643 55.4836 55.2643 55.3356C55.2643 55.1265 55.2093 54.9479 55.0994 54.7999C54.9937 54.6473 54.8478 54.5714 54.6617 54.5714H53.5074V56.2284ZM53.5074 58.4286H54.8647C54.9831 58.4286 55.0888 58.3832 55.1818 58.2932C55.2748 58.2024 55.3488 58.0908 55.4038 57.9568C55.4588 57.8237 55.4863 57.6882 55.4863 57.5499C55.4863 57.3408 55.4313 57.1592 55.3214 57.0074C55.2114 56.8497 55.0655 56.7716 54.8837 56.7716H53.5074V58.4286Z" fill="white"/>
</svg>
