<svg width="441" height="552" viewBox="0 0 441 552" fill="none" xmlns="http://www.w3.org/2000/svg">
<path fill-rule="evenodd" clip-rule="evenodd" d="M316.07 36.4224C315.944 172.574 316.257 357.281 316.641 373.528L317.1 392.921L334.802 410.507C344.538 420.18 352.504 428.339 352.505 428.639C352.505 428.94 344.497 429.092 334.709 428.977L316.913 428.769L316.511 462.719C316.289 481.393 316.045 563.01 315.969 644.091C315.839 781.695 315.899 791.584 316.889 792.575C317.87 793.567 322.449 793.631 379.294 793.496C413.035 793.411 440.721 793.27 440.817 793.17C440.915 793.071 440.996 632.695 441 436.775C441.004 97.8442 440.95 80.517 439.902 79.7321C439.297 79.2781 438.095 78.5372 437.232 78.0845C436.369 77.6319 435.437 76.9066 435.161 76.4724C434.884 76.0382 434.399 75.6833 434.082 75.6833C433.289 75.6833 427.624 71.7705 427.002 70.7951C426.726 70.3618 426.161 69.9954 425.746 69.9809C425.332 69.967 424.016 69.1155 422.821 68.0888C421.626 67.0627 420.308 66.2226 419.892 66.2226C419.476 66.2226 419.042 66.0101 418.927 65.7496C418.733 65.3112 410.158 59.3632 408.697 58.6543C408.34 58.4808 405.155 56.4229 401.62 54.0818C398.084 51.7406 395.037 49.8246 394.847 49.8246C394.659 49.8246 393.739 49.2986 392.804 48.6559C391.127 47.5037 387.138 44.9134 377.295 38.5813C371.101 34.5966 371.282 34.7177 366.312 31.2293C364.068 29.6544 361.831 28.1786 361.341 27.9497C360.851 27.7208 358.45 26.1617 356.006 24.4853C353.562 22.8083 351.139 21.1629 350.622 20.8286C350.104 20.4937 347.345 18.6502 344.491 16.7322C341.637 14.8137 339.184 13.2445 339.04 13.2445C338.894 13.2445 336.993 12.0216 334.814 10.5275C332.635 9.03274 330.428 7.60934 329.91 7.36397C329.392 7.11797 327.698 6.08113 326.145 5.05877C324.591 4.03705 322.437 2.79332 321.357 2.29507C320.277 1.79745 319.202 1.07721 318.967 0.695015C318.731 0.312816 317.991 0 317.321 0C316.13 0 316.102 0.800977 316.07 36.4224ZM276.295 245.421C274.249 246.504 272.271 247.651 271.901 247.969C271.531 248.286 269.675 249.515 267.777 250.7C265.878 251.884 263.984 253.149 263.567 253.511C263.15 253.873 262.565 254.168 262.266 254.168C261.968 254.168 260.615 255.012 259.258 256.043C257.903 257.074 256.619 257.925 256.405 257.935C256.075 257.95 248.618 262.717 246.751 264.108C245.556 264.997 240.473 268.361 239.848 268.674C239.502 268.848 235.87 271.26 231.776 274.036C227.682 276.81 223.657 279.451 222.833 279.904C222.008 280.356 221.333 280.995 221.333 281.323C221.333 281.651 221.021 281.919 220.639 281.919C220.257 281.919 218.875 282.77 217.568 283.811C216.26 284.852 215.008 285.703 214.784 285.703C214.561 285.703 213.613 286.23 212.678 286.874C211.743 287.518 210.159 288.582 209.158 289.239C208.157 289.896 206.604 290.922 205.707 291.52C204.808 292.117 202.976 293.252 201.635 294.042C200.294 294.832 198.74 295.767 198.183 296.118C197.626 296.469 195.758 297.591 194.032 298.61C192.306 299.629 190.753 300.622 190.58 300.815C190.216 301.224 184.919 304.789 183.985 305.255C183.637 305.428 181.661 306.727 179.592 308.142C177.523 309.557 175.338 310.895 174.733 311.118C174.128 311.34 173.634 311.815 173.634 312.172C173.634 312.53 173.348 312.823 172.998 312.823C172.47 312.823 166.834 316.289 164.534 318.027C164.189 318.288 162.495 319.451 160.768 320.613L157.63 322.723L157.435 440.6C157.327 505.432 157.432 573.023 157.667 590.8L158.094 623.123H176.497C188.088 623.123 195.043 623.357 195.287 623.754C195.501 624.1 195.374 624.384 195.005 624.384C193.877 624.384 170.255 646.647 159.624 657.73L157.853 659.577L157.543 725.461C157.258 785.91 157.317 791.428 158.261 792.377C158.827 792.944 159.905 793.411 160.656 793.411C161.409 793.418 189.071 793.518 222.13 793.631L282.236 793.843L282.588 792.434C282.782 791.662 282.792 786.81 282.611 781.653C282.43 776.496 282.266 695.014 282.247 600.576L282.212 428.87H264.011C254 428.87 245.81 428.759 245.81 428.624C245.81 428.279 277.264 396.705 277.606 396.705C277.76 396.705 278.859 395.925 280.048 394.97L282.212 393.236V318.341C282.212 247.434 282.154 243.447 281.113 243.448C280.509 243.448 278.341 244.336 276.295 245.421ZM119.174 493.044C117.255 494.073 109.081 499.085 105.319 501.538C104.404 502.135 102.834 503.087 101.83 503.655C100.826 504.224 98.2304 505.936 96.0615 507.459C93.8918 508.982 91.8062 510.229 91.4267 510.229C91.0472 510.229 90.3956 510.533 89.9786 510.904C89.3284 511.482 81.0364 517.061 75.8066 520.439C74.8998 521.025 73.8758 521.736 73.5302 522.019C73.1853 522.302 70.2198 524.349 66.9406 526.569C63.6614 528.787 60.3758 531.057 59.6387 531.611C57.6662 533.095 56.4817 533.891 50.9367 537.458C41.0926 543.79 37.1053 546.381 35.4282 547.532C34.4932 548.176 33.5688 548.701 33.3751 548.701C32.8677 548.701 11.1612 562.841 8.88621 564.654C8.54133 564.928 6.82608 566.064 5.0741 567.177C3.32282 568.289 1.4507 569.641 0.914289 570.181C0.0386492 571.062 -0.0525237 582.52 0.0195628 681.919C0.0633801 742.836 0.263389 792.837 0.463394 793.043C0.973654 793.553 121.473 793.525 122.298 793.015C122.75 792.731 122.837 790.507 122.562 786.222C122.026 777.877 122.027 673.005 122.564 665.859C122.958 660.603 122.9 660.235 121.333 657.975C118.982 654.584 88.6641 624.387 87.5991 624.375C86.8676 624.367 86.8775 624.257 87.6514 623.754C88.1984 623.398 95.6042 623.139 105.319 623.133L122.045 623.123L122.071 569.987C122.085 540.762 122.293 511.246 122.533 504.396C123.015 490.661 123.097 490.939 119.174 493.044ZM0.96163 831.3C-0.28575 832.072 -0.111188 933.335 1.13831 934.122C2.26413 934.823 54.4704 935 262.128 935C357.917 935 437.35 934.773 438.644 934.497L440.998 933.994V831.435L425.464 830.995C403.672 830.379 1.98356 830.662 0.96163 831.3Z" fill="#344F5E" fill-opacity="0.5"/>
</svg>
