<svg width="181" height="443" viewBox="0 0 181 443" fill="none" xmlns="http://www.w3.org/2000/svg">
<path d="M181 587.106V138.971C181 135.407 179.91 131.99 177.971 129.47C176.031 126.95 173.4 125.534 170.657 125.534C167.914 125.534 165.283 126.95 163.343 129.47C161.404 131.99 160.315 135.407 160.315 138.971V536.398C160.315 546.48 157.232 556.148 151.745 563.277C146.257 570.406 138.815 574.411 131.055 574.411C123.296 574.406 115.856 570.4 110.369 563.272C104.883 556.144 101.799 546.478 101.796 536.398V108.971C101.796 107.207 101.528 105.459 101.008 103.829C100.489 102.199 99.7268 100.717 98.7664 99.4697C97.806 98.222 96.6655 97.2322 95.4107 96.5569C94.1558 95.8817 92.8111 95.5339 91.4529 95.5339C88.7098 95.5339 86.079 96.9498 84.1394 99.4697C82.1997 101.99 81.1099 105.407 81.1099 108.971V536.398C81.1099 546.48 78.027 556.148 72.5398 563.277C67.0526 570.406 59.6106 574.411 51.8505 574.411C43.5839 574.406 35.657 570.136 29.8129 562.541C23.9688 554.945 20.686 544.645 20.686 533.905V13.4368C20.686 9.87309 19.5962 6.4553 17.6565 3.93535C15.7168 1.41541 13.0861 0 10.343 0C8.98475 0 7.64006 0.347302 6.38521 1.02258C5.13036 1.69786 3.98989 2.6876 3.02947 3.93535C2.06905 5.1831 1.30721 6.66475 0.787436 8.29502C0.267659 9.92528 0 11.6722 0 13.4368V589.563C0 591.327 0.267659 593.075 0.787436 594.705C1.30721 596.336 2.06905 597.816 3.02947 599.064C3.98989 600.312 5.13036 601.302 6.38521 601.977C7.64006 602.652 8.98475 603 10.343 603H170.616C171.975 603 173.319 602.652 174.574 601.977C175.829 601.302 176.97 600.312 177.93 599.064C178.89 597.816 179.652 596.336 180.172 594.705C180.692 593.075 180.959 591.327 180.959 589.563L181 587.106Z" fill="#344F5E" fill-opacity="0.5"/>
</svg>
