<svg width="27" height="55" viewBox="0 0 27 55" fill="none" xmlns="http://www.w3.org/2000/svg">
<path fill-rule="evenodd" clip-rule="evenodd" d="M19.3512 2.1425C19.3435 10.1514 19.3627 21.0165 19.3862 21.9722L19.4143 23.113L20.4981 24.1475C21.0942 24.7165 21.5819 25.1964 21.5819 25.2141C21.5819 25.2318 21.0917 25.2407 20.4924 25.234L19.4029 25.2217L19.3782 27.2188C19.3647 28.3172 19.3497 33.1182 19.345 37.8877C19.3371 45.9821 19.3408 46.5638 19.4014 46.6221C19.4615 46.6804 19.7417 46.6842 23.2221 46.6763C25.2879 46.6713 26.9829 46.6629 26.9888 46.6571C26.9948 46.6513 26.9998 37.2173 27 25.6926C27.0002 5.75554 26.997 4.73629 26.9328 4.69013C26.8957 4.66342 26.8222 4.61983 26.7693 4.59321C26.7165 4.56658 26.6594 4.52392 26.6425 4.49838C26.6256 4.47283 26.5959 4.45196 26.5764 4.45196C26.5279 4.45196 26.181 4.22179 26.143 4.16442C26.1261 4.13893 26.0915 4.11738 26.0661 4.11652C26.0408 4.1157 25.9601 4.06562 25.887 4.00522C25.8138 3.94486 25.7332 3.89545 25.7077 3.89545C25.6822 3.89545 25.6556 3.88295 25.6486 3.86762C25.6367 3.84184 25.1117 3.49195 25.0223 3.45025C25.0004 3.44005 24.8054 3.319 24.589 3.18128C24.3725 3.04357 24.1859 2.93086 24.1743 2.93086C24.1628 2.93086 24.1064 2.89992 24.0492 2.86211C23.9465 2.79433 23.7024 2.64197 23.0997 2.26949C22.7205 2.03509 22.7316 2.04222 22.4273 1.83702C22.2899 1.74438 22.1529 1.65757 22.1229 1.6441C22.0929 1.63063 21.9459 1.53893 21.7963 1.44031C21.6467 1.34167 21.4983 1.24488 21.4666 1.22521C21.4349 1.20551 21.266 1.09707 21.0913 0.98425C20.9166 0.871396 20.7664 0.779087 20.7575 0.779087C20.7486 0.779087 20.6322 0.707154 20.4988 0.619267C20.3654 0.531338 20.2303 0.447608 20.1986 0.433175C20.1669 0.418704 20.0632 0.357713 19.968 0.297575C19.8729 0.237474 19.741 0.164313 19.6749 0.135004C19.6088 0.105732 19.543 0.0633654 19.5286 0.0408833C19.5142 0.018401 19.4689 0 19.4278 0C19.3549 0 19.3532 0.0471163 19.3512 2.1425ZM16.916 14.4365C16.7907 14.5002 16.6697 14.5677 16.647 14.5864C16.6243 14.6051 16.5107 14.6774 16.3945 14.747C16.2783 14.8167 16.1623 14.8911 16.1367 14.9124C16.1112 14.9337 16.0754 14.9511 16.0571 14.9511C16.0389 14.9511 15.956 15.0007 15.873 15.0614C15.79 15.122 15.7113 15.1721 15.6983 15.1727C15.678 15.1735 15.2215 15.454 15.1072 15.5358C15.0341 15.5881 14.7228 15.7859 14.6846 15.8044C14.6634 15.8146 14.4411 15.9565 14.1904 16.1198C13.9397 16.283 13.6933 16.4383 13.6428 16.465C13.5923 16.4915 13.551 16.5291 13.551 16.5484C13.551 16.5677 13.5319 16.5835 13.5085 16.5835C13.4851 16.5835 13.4005 16.6335 13.3205 16.6948C13.2404 16.756 13.1637 16.8061 13.1501 16.8061C13.1364 16.8061 13.0784 16.837 13.0211 16.875C12.9638 16.9128 12.8669 16.9754 12.8056 17.0141C12.7443 17.0527 12.6492 17.1131 12.5943 17.1482C12.5393 17.1833 12.4271 17.2501 12.345 17.2966C12.2629 17.3431 12.1678 17.398 12.1337 17.4187C12.0995 17.4394 11.9852 17.5053 11.8795 17.5653C11.7738 17.6252 11.6787 17.6837 11.6682 17.695C11.6459 17.719 11.3216 17.9288 11.2644 17.9562C11.2431 17.9664 11.1221 18.0428 10.9954 18.126C10.8688 18.2092 10.735 18.288 10.698 18.3011C10.6609 18.3141 10.6307 18.342 10.6307 18.3631C10.6307 18.3841 10.6132 18.4013 10.5917 18.4013C10.5594 18.4013 10.2143 18.6052 10.0735 18.7075C10.0524 18.7228 9.94866 18.7913 9.84296 18.8596L9.65084 18.9837L9.6389 25.9177C9.63228 29.7313 9.63868 33.7072 9.65309 34.753L9.67923 36.6543H10.8059C11.5156 36.6543 11.9414 36.668 11.9564 36.6914C11.9694 36.7118 11.9617 36.7285 11.9391 36.7285C11.87 36.7285 10.4238 38.0381 9.77291 38.69L9.66447 38.7986L9.64548 42.6742C9.62804 46.23 9.63167 46.5546 9.68944 46.6104C9.7241 46.6438 9.79008 46.6713 9.83608 46.6713C9.88216 46.6717 11.5758 46.6775 13.5998 46.6842L17.2798 46.6967L17.3013 46.6138C17.3132 46.5683 17.3138 46.2829 17.3027 45.9796C17.2916 45.6763 17.2816 40.8832 17.2804 35.328L17.2783 25.2277H16.1639C15.551 25.2277 15.0496 25.2211 15.0496 25.2132C15.0496 25.1929 16.9753 23.3356 16.9963 23.3356C17.0057 23.3356 17.073 23.2897 17.1458 23.2335L17.2783 23.1315V18.726C17.2783 14.5549 17.2747 14.3204 17.211 14.3205C17.174 14.3205 17.0413 14.3727 16.916 14.4365ZM7.29635 29.0026C7.17887 29.0631 6.67842 29.3579 6.4481 29.5023C6.39206 29.5373 6.29596 29.5934 6.23448 29.6268C6.17303 29.6603 6.01411 29.7609 5.88131 29.8505C5.74848 29.9401 5.62079 30.0135 5.59755 30.0135C5.57432 30.0135 5.53442 30.0313 5.50889 30.0532C5.46909 30.0872 4.96141 30.4153 4.64122 30.6141C4.5857 30.6485 4.52301 30.6904 4.50185 30.707C4.48073 30.7237 4.29917 30.8441 4.0984 30.9746C3.89764 31.1051 3.69648 31.2386 3.65135 31.2713C3.53058 31.3585 3.45806 31.4053 3.11857 31.6152C2.51588 31.9877 2.27175 32.14 2.16907 32.2078C2.11183 32.2456 2.05523 32.2765 2.04338 32.2765C2.01231 32.2765 0.683337 33.1083 0.544054 33.2149C0.522938 33.2311 0.417923 33.2979 0.310659 33.3633C0.203438 33.4287 0.0888182 33.5083 0.0559769 33.54C0.00236628 33.5919 -0.00321574 34.2659 0.00119772 40.1129C0.00388042 43.6963 0.0161259 46.6375 0.0283711 46.6496C0.0596115 46.6796 7.4371 46.6779 7.48764 46.6479C7.51533 46.6313 7.52061 46.5004 7.50378 46.2483C7.47098 45.7575 7.47107 39.5885 7.50391 39.1682C7.52805 38.859 7.52451 38.8374 7.42858 38.7044C7.28462 38.5049 5.42842 36.7286 5.36321 36.728C5.31842 36.7275 5.31903 36.721 5.36641 36.6914C5.3999 36.6705 5.85332 36.6552 6.4481 36.6549L7.47215 36.6543L7.47375 33.5287C7.47462 31.8095 7.48734 30.0733 7.50205 29.6703C7.53156 28.8624 7.53658 28.8788 7.29635 29.0026ZM0.0588753 48.9C-0.0174949 48.9454 -0.00680741 54.9021 0.0696926 54.9483C0.13862 54.9896 3.33492 55 16.0487 55C21.9133 55 26.7765 54.9867 26.8558 54.9704L26.9999 54.9408V48.9079L26.0488 48.8821C24.7146 48.8458 0.121443 48.8625 0.0588753 48.9Z" fill="#CFAC6A"/>
</svg>
